<svg id="Layer_1" data-name="Layer 1" xmlns="http://www.w3.org/2000/svg" xmlns:xlink="http://www.w3.org/1999/xlink" viewBox="0 0 594 371.28"><defs><style>.cls-1{fill:none;}.cls-2{clip-path:url(#clip-path);}.cls-3{fill:url(#linear-gradient);}.cls-4{clip-path:url(#clip-path-2);}.cls-5{fill:url(#radial-gradient);}.cls-6{clip-path:url(#clip-path-3);}.cls-7{fill:url(#radial-gradient-2);}.cls-8{clip-path:url(#clip-path-4);}.cls-9{fill:url(#radial-gradient-3);}.cls-10{clip-path:url(#clip-path-5);}.cls-11{fill:#5f6eb4;}.cls-12{clip-path:url(#clip-path-6);}.cls-13{fill:url(#radial-gradient-4);}.cls-14{clip-path:url(#clip-path-7);}.cls-15{clip-path:url(#clip-path-8);}.cls-16{clip-path:url(#clip-path-9);}.cls-17{clip-path:url(#clip-path-10);}.cls-18{fill:url(#radial-gradient-6);}.cls-19{fill:#00468e;}.cls-20{fill:#e7731f;}.cls-21{fill:#fff;}</style><clipPath id="clip-path"><path class="cls-1" d="M174.73,73.28c-10.57,4.41-20.4,10.25-29.86,16.32l21.71,30.34a139.86,139.86,0,0,1,51.24-18.28l29.75-39.29-7.24,38.35c14.82,0.27,28.73,4.72,39.08,12.62l55.84-34.44c-24.35-14.74-50.78-23.36-80.84-23.36-24,0-50.29,5.5-79.69,17.76"/></clipPath><linearGradient id="linear-gradient" x1="-301.48" y1="643" x2="-300.48" y2="643" gradientTransform="matrix(88.73, 0, 0, -88.73, 26931.54, 57142.81)" gradientUnits="userSpaceOnUse"><stop offset="0" stop-color="#fd0"/><stop offset="0.12" stop-color="#fed105"/><stop offset="0.48" stop-color="#fbb112"/><stop offset="0.79" stop-color="#f99d1a"/><stop offset="1" stop-color="#f8961d"/></linearGradient><clipPath id="clip-path-2"><path class="cls-1" d="M124.21,209.16l-0.07-.14,0,0-0.05-.1,0,0-0.07-.13,0,0-0.05-.11,0,0,0-.09,0,0-0.07-.13,0-.05,0-.08,0-.06,0-.09,0-.05-0.06-.12,0-.07,0-.07,0-.07,0-.07-0.06-.13,0-.06,0-.08,0-.06,0-.08,0-.05-0.07-.14,0-.05,0-.08,0-.05,0-.08h0l-0.09-.2,0,0,0-.09,0,0-0.13-.31v0l0-.1h0l-0.14-.33v0l-0.14-.34h0l0-.11h0l-0.14-.34h0l-0.18-.47h0A42.79,42.79,0,0,1,119.3,190h0v-0.39h0s0-.08,0-0.13h0c0-.12,0-0.24,0-0.37V188.9s0,0,0,0,0-.23,0-0.35v0s0-.07,0-0.1v-0.23s0,0,0-.06,0-.06,0-0.09,0,0,0-.07,0-.06,0-0.09,0-.06,0-0.09v-0.2s0-.05,0-0.08v-0.16s0-.1,0-0.15v-0.06s0-.07,0-0.1v-0.23c0-.05,0-0.11,0-0.16s0,0,0,0V186.4s0-.1,0-0.15V186s0-.09,0-0.14v0c0-.11,0-0.23,0-0.34v-0.19h0v-0.18h0V185h0a56,56,0,0,1,1.37-8.47c-2.8,11.69-1.84,23,3.38,32.67m-3.37-32.71,0-.15v-0.05l0,0.2m0.29-1.16v-0.07h0l0,0.07m-43-20.86,17.37,8.14-27.25,9.56c-8,16.79-12.51,34.41-12.5,52.21a102.48,102.48,0,0,0,3.09,25l61.9-38a46.8,46.8,0,0,1-3.21-16.9v-1a66.31,66.31,0,0,1,7.2-28.36q0.72-1.64,1.54-3.28l0.06-.13,0-.06,0.08-.16,0,0,0.08-.16v0l0.08-.16v0l0.09-.17h0l0.1-.18h0l0.1-.18h0c5.67-10.85,14.39-21.47,25.77-30.76h0l0.17-.13,0,0,0.15-.12,0,0,0.14-.12,0.06,0,0.14-.11,0.06,0,0.13-.1,0.07-.06,0.13-.1,0.08-.06,0.12-.09,0.09-.07,0.11-.09,0.09-.08,0.11-.08,0.1-.08,0.11-.08,0.1-.08,0.1-.08L155,128l0.1-.07,0.11-.09,0.09-.07,0.12-.09,0.09-.07,0.12-.09,0.08-.06,0.12-.09,0.08-.07,0.13-.1,0.08-.06,0.13-.1,0.08-.06,0.14-.1,0.07-.05,0.14-.11,0.07,0,0.15-.11,0.06,0,0.16-.12,0.05,0,0.17-.13,0,0,0.19-.14,0,0,0.21-.15h0q1.19-.87,2.4-1.72h0l0.22-.15h0l0.21-.15h0l0.21-.14,0,0,0.2-.13,0,0,0.19-.13,0,0,0.19-.13,0,0,0.18-.12,0,0,0.18-.12,0,0,0.18-.12,0,0,0.18-.12,0,0,0.18-.12,0.05,0,0.17-.11,0.05,0,0.17-.11,0.05,0,0.17-.11,0.05,0,0.17-.11,0.05,0,0.17-.11,0.06,0,0.18-.11,0.05,0,0.17-.11,0.06,0,0.18-.11,0.05,0,0.18-.11,0.06,0,0.17-.11,0.06,0,0.18-.11,0.05,0,0.17-.11,0.07,0,0.17-.1,0.06,0,0.18-.11,0.05,0,0.17-.11,0.06,0,0.2-.13,0,0,0.23-.14L144.86,89.6c-27.07,17.33-50.65,39.77-66.75,64.83"/></clipPath><radialGradient id="radial-gradient" cx="-301.48" cy="642.99" r="1" gradientTransform="matrix(199.01, 0, 0, -199.01, 60151.11, 128063.78)" gradientUnits="userSpaceOnUse"><stop offset="0" stop-color="#00aeef"/><stop offset="0.27" stop-color="#00abed"/><stop offset="0.46" stop-color="#00a2e5"/><stop offset="0.63" stop-color="#0092d8"/><stop offset="0.79" stop-color="#007cc5"/><stop offset="0.85" stop-color="#0071bc"/><stop offset="1" stop-color="#0066b3"/></radialGradient><clipPath id="clip-path-3"><path class="cls-1" d="M60.33,254.62c9.21,28.63,35.73,47.3,71,51.63l20-16.7,1.94,17.54c34.74-1.39,75.24-15.22,115.15-44.78l-26.76-37.39A146.48,146.48,0,0,1,194,241.85l-33.13,43.5L163.64,270l25.94-36.12-36,50.14,5.68-42.54c-14.14-3.15-25.86-10.22-33.53-21a41.48,41.48,0,0,1-2.72-4.34l4-2.48Z"/></clipPath><radialGradient id="radial-gradient-2" cx="-301.48" cy="642.99" gradientTransform="matrix(199.01, 0, 0, -199.01, 60151.53, 128064.69)" xlink:href="#radial-gradient"/><clipPath id="clip-path-4"><path class="cls-1" d="M35.85,282.14c24.7,69,146.44,89.14,251.6,6.74l-7.92-11.07c18.15-15.25,30.41-29.56,35.37-39.05h0l-4.73,0C196.31,355.15,71.87,327,51.47,256,29.25,178.69,107,92.77,187.63,63.81,114.22,78.71,0,182,35.85,282.14"/></clipPath><radialGradient id="radial-gradient-3" cx="-301.48" cy="642.99" r="1" gradientTransform="matrix(199.01, 0, 0, -199.01, 60151.39, 128064.39)" gradientUnits="userSpaceOnUse"><stop offset="0" stop-color="#00aeef"/><stop offset="0.27" stop-color="#00abed"/><stop offset="0.47" stop-color="#00a2e5"/><stop offset="0.64" stop-color="#0092d7"/><stop offset="0.79" stop-color="#007cc5"/><stop offset="0.85" stop-color="#0072bc"/><stop offset="1" stop-color="#0066b3"/></radialGradient><clipPath id="clip-path-5"><rect class="cls-1" x="160.91" y="217.64" width="80.78" height="67.71"/></clipPath><clipPath id="clip-path-6"><path class="cls-1" d="M236.48,217.64c-15.83,8.81-31.9,14.17-46.9,16.23L163.64,270l-2.73,15.36L194,241.85a146.49,146.49,0,0,0,47.65-16.93Z"/></clipPath><radialGradient id="radial-gradient-4" cx="-301.48" cy="642.99" r="1" gradientTransform="matrix(199.01, 0, 0, -199.01, 60151.53, 128064.69)" gradientUnits="userSpaceOnUse"><stop offset="0" stop-color="#0067b4"/><stop offset="0.38" stop-color="#0064b2"/><stop offset="0.65" stop-color="#005bab"/><stop offset="0.85" stop-color="#014ea2"/><stop offset="0.98" stop-color="#1049a0"/><stop offset="1" stop-color="#14489f"/></radialGradient><clipPath id="clip-path-7"><rect class="cls-1" x="122.99" y="213.63" width="37.33" height="27.83"/></clipPath><clipPath id="clip-path-8"><path class="cls-1" d="M127,213.63l-4,2.48a41.48,41.48,0,0,0,2.72,4.34c7.67,10.78,19.39,17.86,33.53,21l1.08-8.1c-13.34-2.61-24.54-8.71-32.14-18.21C127.77,214.65,127.4,214.15,127,213.63Z"/></clipPath><clipPath id="clip-path-9"><rect class="cls-1" x="117.51" y="165.05" width="7.22" height="46.25"/></clipPath><clipPath id="clip-path-10"><path class="cls-1" d="M117.51,193.45v1a46.79,46.79,0,0,0,3.21,16.9l3.48-2.14c-5.22-9.64-6.18-21-3.38-32.67v0l0.08-.32,0-.06,0.07-.28,0-.11,0-.19,0.05-.2,0-.07a68,68,0,0,1,3.56-10.12,66.33,66.33,0,0,0-7.2,28.36"/></clipPath><radialGradient id="radial-gradient-6" cx="-301.48" cy="642.99" gradientTransform="matrix(199.01, 0, 0, -199.01, 60151.11, 128063.78)" xlink:href="#radial-gradient-4"/></defs><title>logo</title><g class="cls-2"><rect class="cls-3" x="139.57" y="27.91" width="200.97" height="119.64" transform="translate(-15.33 77.76) rotate(-17.84)"/></g><g class="cls-4"><rect class="cls-5" x="55.72" y="89.6" width="110.85" height="159.72"/></g><g class="cls-6"><rect class="cls-7" x="60.33" y="213.63" width="208.12" height="93.46"/></g><g class="cls-8"><rect class="cls-9" y="63.81" width="314.9" height="307.47"/></g><g class="cls-10"><path class="cls-11" d="M236.48,217.64h0c-15.83,8.81-31.91,14.18-46.9,16.23,15-2.05,31.07-7.42,46.9-16.23l5.21,7.28h0l-5.21-7.28"/></g><g class="cls-12"><rect class="cls-13" x="160.91" y="217.64" width="80.78" height="67.71"/></g><g class="cls-14"><path class="cls-11" d="M160.32,233.36l-1.08,8.1h0l1.08-8.1M127,213.63h0c0.37,0.51.75,1,1.15,1.52,7.6,9.49,18.8,15.6,32.14,18.21-13.34-2.61-24.53-8.71-32.14-18.21-0.4-.5-0.78-1-1.15-1.52"/></g><g class="cls-15"><rect class="cls-13" x="122.99" y="213.63" width="37.33" height="27.83"/></g><g class="cls-16"><path class="cls-11" d="M124.21,209.16l-3.48,2.14h0l3.48-2.14m-3.37-32.71v0m0.09-.38,0,0.06,0-.06m0.1-.38,0,0.11,0-.11m0.1-.4-0.05.2,0.05-.2m3.6-10.24,0,0a67.83,67.83,0,0,0-3.56,10.12,67.89,67.89,0,0,1,3.58-10.16m0,0h0"/></g><g class="cls-17"><rect class="cls-18" x="117.51" y="165.09" width="7.2" height="46.21"/></g><path class="cls-19" d="M593.1,144.22c-3.74-14.12-14.87-19.83-30.54-19.32a90.68,90.68,0,0,0-13.2,1.63l13.83-36.12H536.45L491.62,207.24l-0.34.85h0l0,0,0,0,18.68,0,7.72-5.64s4.26,5.39,13.37,6.67c23.21,3.27,42.75-10.71,53.15-26.83,7.34-11.36,11.75-27.16,8.86-38.05m-32.79,35.64c-5.39,7.76-12.84,13.54-20.76,13.67-7,.12-13.58-3.9-9.52-16.67,4.19-13.26,12.85-33.54,12.85-33.54,20.44-8.25,27.08,2.3,26.84,10.49-0.15,5.19-2.7,16.41-9.4,26.05"/><path class="cls-19" d="M215.25,124.87c-17.78,1.75-31.6,6.82-45.64,19.65-10.83,9.89-17.9,25.4-18.22,37.72-0.41,16,11.58,30.18,35.34,26.49,6.43-1,14.53-6.33,14.53-6.33L205,208l18.69,0,29.5-76.92c-5.71-2.87-19.82-8-37.92-6.26m8.56,15.78s-8.48,22.91-14.72,36.17c-6,12.77-14.31,17.13-20.95,16.68-7.24-.5-11.54-5.55-11.38-13.67,0.2-10.07,6.43-20.91,10.89-26.06,4.07-4.69,15.82-16,36.17-13.12"/><path class="cls-19" d="M349.76,197.28l26.88-70.23h26.5l-25.22,65.87c7.53,3.92,21.64,1.72,27.71-11.91l20.59-54h26.64l-25.39,66c10.51,3.45,21.83,1.6,27.6-12l20.69-54h26.43l-21.09,54.54c-5.29,12.2-13.89,28.93-43.4,28.93-9.88,0-18.85-3.49-24.58-8.06-6.48,4-20,8.06-30.22,8.06s-28.73-3.64-33.16-13.24"/><path class="cls-19" d="M273.65,130.79L244,208.14h27.13l25.07-64.93a60.77,60.77,0,0,1,13.38-1.62c8.77,0,12.55,3.38,12,7.8a11.93,11.93,0,0,1-1,3.24l-21.32,55.51h27.16l21-54.49a28.06,28.06,0,0,0,1.74-6.33c1.57-11.92-7-22.09-33-22.12A176.21,176.21,0,0,0,296,126.28a144.14,144.14,0,0,0-22.33,4.51"/><path class="cls-20" d="M244.55,78.54l-4.22,22.16c2.16,0,4.2.17,6.34,0.37l6.23-37.16Z"/><path class="cls-21" d="M335.38,78.89C301.21,49.33,244.63,44.1,187.6,63.83h0.06C107,92.79,29.28,178.7,51.5,256c20.4,71,144.83,99.14,258.69-17.24H297.9s-14.29,13.81-29.48,23.49l0,0.06c-39.92,29.56-80.41,43.4-115.15,44.79l-1.94-17.55-20,16.7c-35.27-4.33-61.79-23-71-51.63l66.67-41a37.58,37.58,0,0,1-2.82-4.47L58.84,249.33c-6.57-26.15-2.31-52.58,9.41-77.2l27.24-9.56-17.36-8.13c16.1-25.06,39.68-47.51,66.75-64.83,9.46-6.07,19.3-11.9,29.87-16.31q3.11-1.29,6.16-2.49c63.2-24.69,111.94-17.58,154.36,8.09h0.1Z"/><path class="cls-21" d="M246.61,67.17l1-4.81L217.8,101.65c2.36-.31,4.3-0.55,6.66-0.72Z"/><path class="cls-21" d="M166,234.27c-2.65-.36-3.25-0.46-5.68-0.9L153.56,284l2.81-3.92Z"/></svg>